<svg width="1920" height="1080" viewBox="0 0 1920 1080" fill="none" xmlns="http://www.w3.org/2000/svg">
<path d="M36.874 649V413.453H101.034V453.004H102.353C112.021 426.197 136.63 408.619 168.271 408.619C201.229 408.619 225.18 426.197 233.09 457.179H234.408C244.955 427.516 273.08 408.619 307.577 408.619C353.72 408.619 384.701 440.479 384.701 487.94V649H320.541V503.98C320.541 476.734 306.918 461.793 282.089 461.793C257.699 461.793 241.659 479.591 241.659 505.738V649H179.916V502.003C179.916 476.734 165.634 461.793 141.903 461.793C117.514 461.793 101.034 480.25 101.034 506.837V649H36.874ZM699.35 649V331.935H763.51V454.103H764.828C776.913 424.879 801.742 408.619 837.118 408.619C888.095 408.619 919.735 444.215 919.735 501.124V649H855.575V514.308C855.575 481.349 839.315 461.793 810.092 461.793C781.747 461.793 763.51 483.326 763.51 514.088V649H699.35Z" fill="black"/>
<path d="M540.927 331.935L461.605 725.904H404.477L484.018 331.935H540.927ZM677.157 331.935L597.836 725.904H540.707L620.248 331.935H677.157Z" fill="#464646"/>
<path d="M996.598 684.994V203.476H1040.1V684.994H996.598Z" fill="#393939"/>
<path d="M1153.97 559.197C1116.88 559.197 1093.59 534.412 1093.59 493.543V493.455C1093.59 452.586 1116.97 427.977 1153.97 427.977C1184.73 427.977 1206.79 447.4 1209.26 474.295L1209.34 475.086H1183.5L1183.15 473.592C1180.16 459.617 1169.79 450.477 1153.97 450.477C1133.67 450.477 1120.66 466.824 1120.66 493.367V493.455C1120.66 520.174 1133.67 536.697 1153.97 536.697C1169.27 536.697 1179.99 527.908 1183.42 512.879L1183.59 512H1209.43L1209.34 512.967C1206.88 539.949 1184.65 559.197 1153.97 559.197ZM1223.67 557V462.781H1249.33V479.217H1249.86C1252.67 467.615 1260.32 460.848 1271.31 460.848C1274.12 460.848 1276.76 461.287 1278.69 461.814V484.402C1276.58 483.523 1273.06 482.996 1269.37 482.996C1256.72 482.996 1249.33 490.555 1249.33 504.266V557H1223.67ZM1328.96 558.934C1300.13 558.934 1282.64 540.213 1282.64 510.066V509.979C1282.64 480.008 1300.31 460.848 1327.91 460.848C1355.51 460.848 1372.82 479.568 1372.82 508.045V515.955H1307.96C1308.22 530.984 1316.39 539.773 1329.49 539.773C1340.04 539.773 1346.45 533.973 1348.3 528.699L1348.47 528.172H1372.03L1371.77 529.139C1368.87 543.025 1355.86 558.934 1328.96 558.934ZM1328.35 480.008C1317.8 480.008 1309.89 487.039 1308.22 499.783H1348.21C1346.63 486.775 1338.98 480.008 1328.35 480.008ZM1414.13 558.494C1395.23 558.494 1382.49 546.629 1382.49 530.018V529.842C1382.49 512.703 1395.76 502.684 1419.14 501.189L1442.43 499.783V493.982C1442.43 485.633 1436.98 480.447 1426.96 480.447C1417.38 480.447 1411.58 484.93 1410.35 490.994L1410.17 491.785H1386.71L1386.79 490.73C1388.2 473.328 1403.14 460.848 1428.02 460.848C1452.36 460.848 1468.09 473.416 1468.09 492.4V557H1442.43V542.938H1441.9C1436.54 552.605 1426.52 558.494 1414.13 558.494ZM1407.89 528.699C1407.89 535.643 1413.6 539.773 1422.48 539.773C1433.99 539.773 1442.43 532.391 1442.43 522.547V515.779L1423.01 517.01C1413.07 517.625 1407.89 521.844 1407.89 528.523V528.699ZM1522.15 558.934C1501.23 558.934 1491.38 550.848 1491.38 530.633V482.117H1478.29V462.781H1491.38V439.754H1517.31V462.781H1534.54V482.117H1517.31V527.82C1517.31 536.609 1521.27 539.598 1529 539.598C1531.29 539.598 1532.96 539.334 1534.54 539.158V557.967C1531.64 558.406 1527.51 558.934 1522.15 558.934ZM1562.05 450.652C1554.31 450.652 1548.34 444.588 1548.34 437.293C1548.34 429.998 1554.31 423.934 1562.05 423.934C1569.78 423.934 1575.76 429.998 1575.76 437.293C1575.76 444.588 1569.78 450.652 1562.05 450.652ZM1549.22 557V462.781H1574.88V557H1549.22ZM1635.35 558.934C1606.7 558.934 1588.68 540.564 1588.68 509.891V509.715C1588.68 479.393 1607.14 460.848 1635.26 460.848C1663.47 460.848 1682.02 479.217 1682.02 509.715V509.891C1682.02 540.652 1663.83 558.934 1635.35 558.934ZM1635.44 538.807C1647.92 538.807 1655.92 528.26 1655.92 509.891V509.715C1655.92 491.521 1647.74 480.975 1635.26 480.975C1622.87 480.975 1614.78 491.521 1614.78 509.715V509.891C1614.78 528.348 1622.78 538.807 1635.44 538.807ZM1695.29 557V462.781H1720.96V478.25H1721.48C1726.32 467.439 1735.98 460.848 1750.22 460.848C1770.96 460.848 1782.74 474.119 1782.74 496.18V557H1757.08V501.453C1757.08 489.148 1751.28 482.117 1739.76 482.117C1728.25 482.117 1720.96 490.555 1720.96 502.859V557H1695.29ZM1837.76 558.934C1811.66 558.934 1797.16 546.893 1795.13 529.051L1795.05 528.26H1820.1L1820.27 529.051C1821.94 536.434 1827.48 540.74 1837.76 540.74C1847.43 540.74 1853.32 536.961 1853.32 530.896V530.809C1853.32 525.799 1850.15 522.898 1840.93 520.877L1824.93 517.537C1806.65 513.67 1797.42 504.529 1797.42 490.467V490.379C1797.42 472.449 1812.89 460.848 1836.88 460.848C1861.93 460.848 1875.91 474.119 1876.52 490.643V491.521H1852.88L1852.79 490.818C1851.91 484.051 1846.38 478.953 1836.88 478.953C1828.01 478.953 1822.47 482.908 1822.47 488.973V489.061C1822.47 493.895 1825.72 497.059 1835.21 499.08L1851.21 502.508C1870.9 506.639 1878.98 514.373 1878.98 528.26V528.348C1878.98 546.805 1862.02 558.934 1837.76 558.934Z" fill="#1F1F1F" fill-opacity="0.9"/>
</svg>
