<svg height="70" viewBox="0 0 690 371" fill="none" xmlns="http://www.w3.org/2000/svg">
<path d="M19.3594 292V141.25H59.0156V168.531H59.8594C63.0469 159.344 68.4844 152.031 76.1719 146.594C83.8594 141.156 92.7656 138.438 102.891 138.438C113.766 138.438 122.859 141.156 130.172 146.594C137.484 151.938 142.406 159.531 144.938 169.375H145.781C149.156 159.906 155.016 152.406 163.359 146.875C171.797 141.25 181.547 138.438 192.609 138.438C207.422 138.438 219.328 143.078 228.328 152.359C237.422 161.641 241.969 173.875 241.969 189.062V292H200.906V199.328C200.906 190.609 198.797 183.953 194.578 179.359C190.359 174.672 184.266 172.328 176.297 172.328C168.516 172.328 162.234 174.906 157.453 180.062C152.766 185.219 150.422 192.016 150.422 200.453V292H110.906V198.062C110.906 190 108.75 183.719 104.438 179.219C100.125 174.625 94.1719 172.328 86.5781 172.328C78.7969 172.328 72.4688 175 67.5938 180.344C62.8125 185.688 60.4219 192.578 60.4219 201.016V292H19.3594ZM488.906 292V89.0781H529.266V168.109H530.109C534.141 158.547 540.188 151.234 548.25 146.172C556.406 141.016 566.156 138.438 577.5 138.438C594.094 138.438 606.984 143.5 616.172 153.625C625.453 163.656 630.094 177.438 630.094 194.969V292H589.031V203.688C589.031 193.844 586.594 186.203 581.719 180.766C576.938 175.234 569.953 172.469 560.766 172.469C551.203 172.469 543.656 175.562 538.125 181.75C532.688 187.844 529.969 195.906 529.969 205.938V292H488.906Z" fill="black"/>
<path d="M292.594 335.594H254.625L326.766 89.0781H364.594L292.594 335.594ZM402.562 335.594H364.594L436.734 89.0781H474.562L402.562 335.594Z" fill="#CBCBCB"/>
</svg>
