<svg width="3168" height="734" viewBox="0 0 3168 734" fill="none" xmlns="http://www.w3.org/2000/svg">
<g clip-path="url(#clip0_1203_17)">
<path d="M20.874 546V310.453H85.0342V350.004H86.3525C96.0205 323.197 120.63 305.619 152.271 305.619C185.229 305.619 209.18 323.197 217.09 354.179H218.408C228.955 324.516 257.08 305.619 291.577 305.619C337.72 305.619 368.701 337.479 368.701 384.94V546H304.541V400.98C304.541 373.734 290.918 358.793 266.089 358.793C241.699 358.793 225.659 376.591 225.659 402.738V546H163.916V399.003C163.916 373.734 149.634 358.793 125.903 358.793C101.514 358.793 85.0342 377.25 85.0342 403.837V546H20.874ZM683.35 546V228.935H747.51V351.103H748.828C760.913 321.879 785.742 305.619 821.118 305.619C872.095 305.619 903.735 341.215 903.735 398.124V546H839.575V411.308C839.575 378.349 823.315 358.793 794.092 358.793C765.747 358.793 747.51 380.326 747.51 411.088V546H683.35Z" fill="black"/>
<path d="M524.927 228.935L445.605 622.904H388.477L468.018 228.935H524.927ZM661.157 228.935L581.836 622.904H524.707L604.248 228.935H661.157Z" fill="#CBCBCB"/>
<path d="M996.598 617.994H1040.1V136.476H996.598V617.994Z" fill="#DADADA"/>
<path d="M1288.43 551.493C1195.71 551.493 1137.48 489.53 1137.48 387.357V387.138C1137.48 284.965 1195.93 223.441 1288.43 223.441C1365.34 223.441 1420.49 272.001 1426.64 339.237L1426.86 341.215H1362.26L1361.38 337.479C1353.91 302.543 1327.98 279.691 1288.43 279.691C1237.67 279.691 1205.16 320.561 1205.16 386.918V387.138C1205.16 453.935 1237.67 495.243 1288.43 495.243C1326.66 495.243 1353.47 473.271 1362.04 435.697L1362.48 433.5H1427.08L1426.86 435.917C1420.71 503.373 1365.12 551.493 1288.43 551.493ZM1462.67 546V310.453H1526.83V351.542H1528.15C1535.18 322.538 1554.3 305.619 1581.77 305.619C1588.8 305.619 1595.39 306.718 1600.22 308.036V364.506C1594.95 362.309 1586.16 360.99 1576.93 360.99C1545.29 360.99 1526.83 379.887 1526.83 414.164V546H1462.67ZM1725.91 550.834C1653.84 550.834 1610.11 504.032 1610.11 428.666V428.446C1610.11 353.52 1654.28 305.619 1723.27 305.619C1792.26 305.619 1835.55 352.421 1835.55 423.612V443.388H1673.39C1674.05 480.961 1694.49 502.934 1727.23 502.934C1753.59 502.934 1769.63 488.432 1774.25 475.248L1774.69 473.93H1833.57L1832.91 476.347C1825.66 511.063 1793.14 550.834 1725.91 550.834ZM1724.37 353.52C1698 353.52 1678.23 371.098 1674.05 402.958H1774.03C1770.07 370.438 1750.96 353.52 1724.37 353.52ZM1938.82 549.735C1891.58 549.735 1859.72 520.072 1859.72 478.544V478.104C1859.72 435.258 1892.9 410.209 1951.35 406.474L2009.57 402.958V388.456C2009.57 367.582 1995.95 354.618 1970.9 354.618C1946.95 354.618 1932.45 365.824 1929.37 380.985L1928.93 382.963H1870.27L1870.49 380.326C1874 336.82 1911.36 305.619 1973.54 305.619C2034.4 305.619 2073.73 337.04 2073.73 384.501V546H2009.57V510.844H2008.26C1994.85 535.014 1969.8 549.735 1938.82 549.735ZM1923.22 475.248C1923.22 492.606 1937.5 502.934 1959.7 502.934C1988.48 502.934 2009.57 484.477 2009.57 459.867V442.948L1961.01 446.024C1936.19 447.562 1923.22 458.109 1923.22 474.809V475.248ZM2208.87 550.834C2156.57 550.834 2131.96 530.619 2131.96 480.082V358.793H2099.22V310.453H2131.96V252.885H2196.78V310.453H2239.85V358.793H2196.78V473.051C2196.78 495.023 2206.67 502.494 2226 502.494C2231.72 502.494 2235.89 501.835 2239.85 501.396V548.417C2232.6 549.516 2222.27 550.834 2208.87 550.834ZM2308.62 280.131C2289.29 280.131 2274.34 264.97 2274.34 246.732C2274.34 228.495 2289.29 213.334 2308.62 213.334C2327.96 213.334 2342.9 228.495 2342.9 246.732C2342.9 264.97 2327.96 280.131 2308.62 280.131ZM2276.54 546V310.453H2340.7V546H2276.54ZM2491.87 550.834C2420.24 550.834 2375.2 504.911 2375.2 428.227V427.787C2375.2 351.981 2421.34 305.619 2491.65 305.619C2562.19 305.619 2608.55 351.542 2608.55 427.787V428.227C2608.55 505.131 2563.07 550.834 2491.87 550.834ZM2492.09 500.517C2523.29 500.517 2543.29 474.149 2543.29 428.227V427.787C2543.29 382.304 2522.86 355.937 2491.65 355.937C2460.67 355.937 2440.46 382.304 2440.46 427.787V428.227C2440.46 474.369 2460.45 500.517 2492.09 500.517ZM2641.73 546V310.453H2705.89V349.125H2707.21C2719.29 322.099 2743.46 305.619 2779.06 305.619C2830.91 305.619 2860.36 338.798 2860.36 393.949V546H2796.2V407.133C2796.2 376.371 2781.69 358.793 2752.91 358.793C2724.12 358.793 2705.89 379.887 2705.89 410.648V546H2641.73ZM2997.9 550.834C2932.65 550.834 2896.39 520.731 2891.34 476.127L2891.12 474.149H2953.74L2954.18 476.127C2958.35 494.584 2972.2 505.351 2997.9 505.351C3022.07 505.351 3036.8 495.902 3036.8 480.741V480.521C3036.8 467.997 3028.89 460.746 3005.81 455.692L2965.82 447.343C2920.12 437.675 2897.05 414.823 2897.05 379.667V379.447C2897.05 334.623 2935.72 305.619 2995.71 305.619C3058.33 305.619 3093.27 338.798 3094.8 380.106V382.304H3035.7L3035.48 380.546C3033.28 363.627 3019.44 350.883 2995.71 350.883C2973.51 350.883 2959.67 360.771 2959.67 375.932V376.151C2959.67 388.236 2967.8 396.146 2991.53 401.2L3031.52 409.77C3080.74 420.097 3100.96 439.433 3100.96 474.149V474.369C3100.96 520.512 3058.55 550.834 2997.9 550.834Z" fill="black"/>
</g>
<defs>
<clipPath id="clip0_1203_17">
<rect width="3168" height="734" fill="white"/>
</clipPath>
</defs>
</svg>
